<svg width="128" height="32" viewBox="0 0 128 32" fill="none" xmlns="http://www.w3.org/2000/svg">
<path d="M33.9177 11.1006L46.823 11.1006L46.823 13.503L41.7417 13.503L41.7417 27.0461L38.9565 27.0461L38.9565 13.503L33.8965 13.503L33.9177 11.1006ZM46.2702 15.5015L48.6514 15.5015L48.6514 17.7339L48.6939 17.7339C48.7789 17.415 48.9278 17.1174 49.1404 16.8197C49.353 16.5221 49.6081 16.2457 49.927 16.0118C50.2247 15.7567 50.5648 15.5653 50.9475 15.4165C51.309 15.2677 51.6917 15.1826 52.0744 15.1826C52.372 15.1826 52.5846 15.2039 52.6909 15.2039C52.7972 15.2252 52.9248 15.2464 53.0311 15.2464L53.0311 17.6914C52.861 17.6489 52.6696 17.6276 52.4783 17.6063C52.287 17.5851 52.1169 17.5638 51.9255 17.5638C51.5003 17.5638 51.0964 17.6489 50.7137 17.819C50.331 17.989 50.0121 18.2442 49.7144 18.5631C49.438 18.9032 49.2042 19.3072 49.0341 19.7962C48.864 20.2852 48.7789 20.8592 48.7789 21.4971L48.7789 26.9823L46.2277 26.9823L46.2702 15.5015ZM64.7244 27.0461L62.2157 27.0461L62.2157 25.4303L62.1732 25.4303C61.8543 26.0256 61.3865 26.472 60.77 26.8335C60.1534 27.1949 59.5156 27.365 58.8778 27.365C57.3683 27.365 56.2627 27.0036 55.5824 26.2382C54.902 25.4941 54.5618 24.346 54.5618 22.8365L54.5618 15.5015L57.1131 15.5015L57.1131 22.5813C57.1131 23.6019 57.3045 24.3247 57.7084 24.7287C58.0911 25.1539 58.6439 25.3665 59.3455 25.3665C59.877 25.3665 60.3235 25.2815 60.6849 25.1114C61.0463 24.9413 61.344 24.7287 61.5566 24.4523C61.7905 24.1759 61.9393 23.8357 62.0456 23.453C62.1519 23.0703 62.1944 22.6451 62.1944 22.1987L62.1944 15.5015L64.7457 15.5015L64.7457 27.0461L64.7244 27.0461ZM69.0616 23.3467C69.1467 24.0909 69.423 24.6011 69.912 24.92C70.401 25.2177 70.9963 25.3665 71.6767 25.3665C71.9105 25.3665 72.1869 25.3452 72.4846 25.3027C72.7822 25.2602 73.0799 25.1964 73.335 25.0901C73.6114 24.9838 73.824 24.835 73.9941 24.6224C74.1642 24.4098 74.2492 24.1546 74.228 23.8357C74.2067 23.5168 74.1004 23.2404 73.8665 23.0278C73.6327 22.8152 73.3563 22.6664 73.0161 22.5176C72.6759 22.39 72.272 22.2837 71.8255 22.1987C71.379 22.1136 70.9326 22.0073 70.4648 21.901C69.9971 21.7947 69.5294 21.6671 69.0829 21.5183C68.6364 21.3695 68.2537 21.1781 67.8923 20.9018C67.5521 20.6466 67.2545 20.3277 67.0631 19.9238C66.8505 19.5198 66.7442 19.0521 66.7442 18.4568C66.7442 17.819 66.893 17.3087 67.2119 16.8835C67.5096 16.4583 67.9135 16.1181 68.3813 15.863C68.849 15.6078 69.3805 15.4165 69.9546 15.3102C70.5286 15.2039 71.0814 15.1614 71.5916 15.1614C72.1869 15.1614 72.761 15.2252 73.2925 15.3527C73.824 15.4803 74.3343 15.6716 74.7595 15.9693C75.2059 16.2457 75.5674 16.6284 75.8438 17.0748C76.1414 17.5213 76.3115 18.0741 76.3965 18.7119L73.739 18.7119C73.6114 18.0953 73.335 17.6914 72.9098 17.4788C72.4633 17.2662 71.9743 17.1599 71.4003 17.1599C71.2302 17.1599 70.9963 17.1811 70.7625 17.2024C70.5073 17.2449 70.2947 17.2874 70.0609 17.3725C69.8483 17.4575 69.6569 17.5851 69.5081 17.7339C69.3593 17.8827 69.2742 18.0953 69.2742 18.3505C69.2742 18.6694 69.3805 18.9032 69.5931 19.0946C69.8057 19.2859 70.0821 19.4348 70.4436 19.5836C70.7837 19.7112 71.1877 19.8175 71.6342 19.9025C72.0806 19.9875 72.5484 20.0938 73.0161 20.2002C73.4838 20.3065 73.9303 20.434 74.3768 20.5828C74.8233 20.7317 75.2272 20.923 75.5674 21.1994C75.9075 21.4545 76.2052 21.7734 76.4178 22.1561C76.6304 22.5388 76.7367 23.0278 76.7367 23.5806C76.7367 24.2609 76.5879 24.835 76.269 25.324C75.9501 25.7917 75.5461 26.1957 75.0571 26.4933C74.5681 26.791 73.9941 27.0036 73.3988 27.1524C72.7822 27.28 72.1869 27.365 71.5916 27.365C70.8688 27.365 70.1884 27.28 69.5719 27.1099C68.9553 26.9398 68.4025 26.6847 67.9561 26.3657C67.5096 26.0256 67.1482 25.6216 66.893 25.1114C66.6379 24.6224 66.4891 24.0271 66.4678 23.3255L69.0404 23.3255L69.0404 23.3467L69.0616 23.3467ZM77.4596 15.5015L79.3943 15.5015L79.3943 12.0148L81.9456 12.0148L81.9456 15.4803L84.2417 15.4803L84.2417 17.3725L81.9456 17.3725L81.9456 23.5381C81.9456 23.8145 81.9668 24.0271 81.9881 24.2397C82.0094 24.431 82.0731 24.6011 82.1369 24.7287C82.222 24.8562 82.3495 24.9625 82.4984 25.0263C82.6684 25.0901 82.881 25.1326 83.1787 25.1326C83.3488 25.1326 83.5401 25.1326 83.7102 25.1114C83.8803 25.0901 84.0716 25.0688 84.2417 25.0263L84.2417 27.0036C83.9653 27.0461 83.6889 27.0673 83.4126 27.0886C83.1362 27.1311 82.881 27.1311 82.5834 27.1311C81.9031 27.1311 81.3715 27.0673 80.9676 26.9398C80.5636 26.8122 80.2447 26.6209 80.0109 26.387C79.777 26.1319 79.6282 25.8342 79.5431 25.4728C79.4581 25.1114 79.4156 24.6649 79.3943 24.1972L79.3943 17.3937L77.4596 17.3937L77.4596 15.459L77.4596 15.5015ZM86.0276 15.5015L88.4301 15.5015L88.4301 17.0748L88.4726 17.0748C88.834 16.3945 89.323 15.9268 89.9608 15.6291C90.5987 15.3315 91.279 15.1826 92.0444 15.1826C92.9586 15.1826 93.7452 15.3315 94.4256 15.6716C95.1059 15.9905 95.6587 16.4158 96.1052 16.9898C96.5517 17.5426 96.8918 18.2017 97.1044 18.9458C97.317 19.6899 97.4446 20.4978 97.4446 21.327C97.4446 22.1136 97.3383 22.8577 97.147 23.5806C96.9343 24.3035 96.6367 24.9625 96.2327 25.5153C95.8288 26.0681 95.3185 26.5146 94.6807 26.8547C94.0429 27.1949 93.32 27.365 92.4696 27.365C92.1082 27.365 91.7255 27.3225 91.364 27.2587C91.0026 27.1949 90.6412 27.0886 90.301 26.9398C89.9608 26.791 89.6419 26.5996 89.3655 26.3657C89.0679 26.1319 88.834 25.8555 88.6427 25.5578L88.6002 25.5578L88.6002 31.3195L86.0489 31.3195L86.0489 15.5015L86.0276 15.5015ZM94.9358 21.2844C94.9358 20.7742 94.8721 20.2639 94.7232 19.7749C94.5957 19.2859 94.3831 18.8607 94.1067 18.478C93.8303 18.0953 93.4901 17.7977 93.1074 17.5638C92.7035 17.33 92.2357 17.2237 91.7255 17.2237C90.6625 17.2237 89.8545 17.5851 89.3018 18.3292C88.7703 19.0733 88.4939 20.0726 88.4939 21.3057C88.4939 21.901 88.5576 22.4325 88.7065 22.9215C88.8553 23.4105 89.0466 23.8357 89.3443 24.1972C89.6207 24.5586 89.9608 24.835 90.3648 25.0476C90.7688 25.2602 91.2152 25.3665 91.7467 25.3665C92.342 25.3665 92.8098 25.2389 93.2137 25.0051C93.6177 24.7712 93.9366 24.4523 94.213 24.0909C94.4681 23.7082 94.6594 23.283 94.7658 22.794C94.8721 22.2837 94.9358 21.7947 94.9358 21.2844ZM99.4218 11.1006L101.973 11.1006L101.973 13.503L99.4218 13.503L99.4218 11.1006ZM99.4218 15.5015L101.973 15.5015L101.973 27.0461L99.4218 27.0461L99.4218 15.5015ZM104.248 11.1006L106.799 11.1006L106.799 27.0461L104.248 27.0461L104.248 11.1006ZM114.581 27.365C113.666 27.365 112.837 27.2162 112.114 26.8973C111.392 26.5784 110.796 26.1744 110.286 25.6429C109.797 25.1114 109.414 24.4523 109.159 23.7082C108.904 22.964 108.755 22.1349 108.755 21.2632C108.755 20.3915 108.883 19.5836 109.159 18.8395C109.414 18.0954 109.797 17.4575 110.286 16.9048C110.775 16.3732 111.392 15.948 112.114 15.6504C112.837 15.3527 113.666 15.1826 114.581 15.1826C115.495 15.1826 116.324 15.3315 117.047 15.6504C117.77 15.948 118.365 16.3732 118.875 16.9048C119.364 17.4363 119.747 18.0954 120.002 18.8395C120.257 19.5836 120.406 20.3915 120.406 21.2632C120.406 22.1561 120.279 22.964 120.002 23.7082C119.726 24.4523 119.364 25.0901 118.875 25.6429C118.386 26.1744 117.77 26.5996 117.047 26.8973C116.324 27.1949 115.516 27.365 114.581 27.365ZM114.581 25.3452C115.133 25.3452 115.644 25.2177 116.048 24.9838C116.473 24.7499 116.792 24.431 117.068 24.0483C117.345 23.6656 117.536 23.2192 117.663 22.7514C117.791 22.2624 117.855 21.7734 117.855 21.2632C117.855 20.7742 117.791 20.2852 117.663 19.7962C117.536 19.3072 117.345 18.882 117.068 18.4993C116.792 18.1166 116.452 17.819 116.048 17.5851C115.622 17.3512 115.133 17.2237 114.581 17.2237C114.028 17.2237 113.518 17.3512 113.114 17.5851C112.688 17.819 112.37 18.1379 112.093 18.4993C111.817 18.882 111.625 19.3072 111.498 19.7962C111.37 20.2852 111.307 20.7742 111.307 21.2632C111.307 21.7734 111.37 22.2624 111.498 22.7514C111.625 23.2404 111.817 23.6656 112.093 24.0483C112.37 24.431 112.71 24.7499 113.114 24.9838C113.539 25.2389 114.028 25.3452 114.581 25.3452ZM121.171 15.5015L123.106 15.5015L123.106 12.0148L125.658 12.0148L125.658 15.4803L127.954 15.4803L127.954 17.3725L125.658 17.3725L125.658 23.5381C125.658 23.8145 125.679 24.0271 125.7 24.2397C125.721 24.431 125.785 24.6011 125.849 24.7287C125.934 24.8562 126.061 24.9625 126.21 25.0263C126.38 25.0901 126.593 25.1326 126.891 25.1326C127.061 25.1326 127.252 25.1326 127.422 25.1114C127.592 25.0901 127.784 25.0689 127.954 25.0263L127.954 27.0036C127.677 27.0461 127.401 27.0673 127.124 27.0886C126.848 27.1311 126.593 27.1311 126.295 27.1311C125.615 27.1311 125.083 27.0674 124.68 26.9398C124.276 26.8122 123.957 26.6209 123.723 26.387C123.489 26.1319 123.34 25.8342 123.255 25.4728C123.17 25.1114 123.127 24.6649 123.106 24.1972L123.106 17.3937L121.171 17.3937L121.171 15.459L121.171 15.5015Z" fill="black"/>
<path d="M30.9422 11.099L19.2701 11.099L15.677 0.000977899L12.0627 11.099L0.390624 11.0778L9.83036 17.945L6.21604 29.043L15.6558 22.1758L25.0955 29.043L21.5025 17.945L30.9422 11.099Z" fill="#00B67A"/>
<path d="M22.3091 20.4551L21.5012 17.9463L15.6758 22.1772L22.3091 20.4551Z" fill="#005128"/>
</svg>
